<svg id="Layer_1" data-name="Layer 1" xmlns="http://www.w3.org/2000/svg" xmlns:xlink="http://www.w3.org/1999/xlink" width="200" height="255" viewBox="0 0 200 255"><defs><style>.cls-1{fill:none;}.cls-2{fill:#fff;}.cls-3{fill:#221f1f;}.cls-4{clip-path:url(#clip-path);}.cls-5{fill:#f5ea13;}.cls-6{fill:#bd1e2d;}.cls-7{clip-path:url(#clip-path-2);}.cls-8{fill:#f9e400;}.cls-9{clip-path:url(#clip-path-4);}</style><clipPath id="clip-path"><rect class="cls-1" x="3.52" y="14.24" width="191.19" height="232.24"/></clipPath><clipPath id="clip-path-2"><path class="cls-1" d="M52.19,97.57A47.47,47.47,0,1,1,99.65,145,47.46,47.46,0,0,1,52.19,97.57m-13.26,0A60.73,60.73,0,1,0,99.65,36.84,60.73,60.73,0,0,0,38.93,97.57"/></clipPath><clipPath id="clip-path-4"><path class="cls-1" d="M38.94,95.83c0,33.39,27.38,60.46,61.14,60.46s61.15-27.07,61.15-60.46-27.38-60.45-61.15-60.45S38.94,62.44,38.94,95.83"/></clipPath></defs><title>AIFC Board Portal_logo</title><path class="cls-2" d="M100.15,189.42l24.55,54.83a14.06,14.06,0,0,0,17.9,7.38h0A14.07,14.07,0,0,0,150.53,233l-20.42-48.66,48.28,23.76a14.08,14.08,0,0,0,18.91-6.54l.16-.33a14.08,14.08,0,0,0-5.74-18.33l-33.35-19.83a91,91,0,1,0-116.61.36L8.28,182.94a14.08,14.08,0,0,0-5.74,18.33l.16.33a14.08,14.08,0,0,0,18.91,6.54l48.28-23.76L49.47,233a14.07,14.07,0,0,0,7.93,18.59h0a14.06,14.06,0,0,0,17.9-7.38l24.55-54.83"/><path class="cls-2" d="M178.46,189.36h0c2.82-5.6-45.86-30.45-45.35-31.5-.69-.3-3-1.71-5.38-1.09a6.28,6.28,0,0,0-1.79.27c-2.56.74-4.45,3.83-5.41,5.38-1.7,5.52-.55,9.55,4.38,11.94,0-1,12.17,5.47,24.66,10,13.24,4.79,28.36,6.15,28.89,5"/><path class="cls-2" d="M134.64,230.16h0c5.54-2.52-16.86-52.36-15.84-52.84-.35-.67-1.29-3.22-3.48-4.24a6.49,6.49,0,0,0-1.54-.93c-2.41-1-5.73.13-7.4.72-4.63,3.16-6.18,7-3.84,11.94.64-.75,6.06,11.88,12.93,23.24,7.29,12,18.08,22.65,19.17,22.11"/><path class="cls-2" d="M65.92,231.13h0c5.47,2.66,29.52-46.42,30.54-45.93.28-.7,1.65-3.06,1-5.39a6.19,6.19,0,0,0-.27-1.78c-.74-2.51-3.76-4.32-5.28-5.23-5.39-1.55-9.32-.3-11.64,4.67,1,0-5.27,12.25-9.62,24.79-4.62,13.3-5.88,28.38-4.77,28.87"/><path class="cls-2" d="M22.56,192.18h0c2.75,5.43,51.59-19.09,52.11-18.09.65-.38,3.17-1.43,4.09-3.66a6.67,6.67,0,0,0,.86-1.58c.94-2.45-.38-5.72-1-7.36-3.35-4.49-7.24-5.88-12.09-3.32.78.6-11.61,6.56-22.66,13.91-11.73,7.8-21.85,19-21.27,20.1"/><path class="cls-3" d="M136.43,245a3.08,3.08,0,0,1-2.71-1.6l-32.63-60.56a4.6,4.6,0,0,1,.38-4.6l3.35-4.33a5.89,5.89,0,0,1,4.34-2l5.47.21a4.61,4.61,0,0,1,3.77,2.67l25.42,63.93a3.08,3.08,0,0,1-1.54,3.88l-4.6,2.14A2.92,2.92,0,0,1,136.43,245ZM109,172.76a5.05,5.05,0,0,0-3.54,1.7l-3.35,4.33a3.75,3.75,0,0,0-.31,3.69l32.63,60.57a2.25,2.25,0,0,0,2.88,1l4.6-2.15a2.24,2.24,0,0,0,1.12-2.82l-25.43-63.93a3.75,3.75,0,0,0-3-2.14l-5.47-.21Z"/><rect class="cls-1" x="3.52" y="14.24" width="191.19" height="232.24"/><rect class="cls-3" x="102.37" y="156.42" width="1.66" height="16.78" transform="translate(-59.99 59.06) rotate(-25)"/><rect class="cls-3" x="113.21" y="171.61" width="0.83" height="31.13" transform="translate(-68.46 65.56) rotate(-25)"/><g class="cls-4"><path class="cls-3" d="M115.61,209l18.48,34.29a2.65,2.65,0,0,0,3.42,1.13l4.59-2.14a2.66,2.66,0,0,0,1.33-3.35L129,202.7l-9.38-2.59Z"/><path class="cls-3" d="M115.71,197a1.65,1.65,0,0,1-3,1.4,1.65,1.65,0,1,1,3-1.4"/><path class="cls-3" d="M119.79,195.06a1.65,1.65,0,1,0,3-1.39,1.65,1.65,0,1,0-3,1.39"/><path class="cls-3" d="M62.88,245a2.92,2.92,0,0,1-1.25-.28L57,242.62a3.08,3.08,0,0,1-1.54-3.88l25.42-63.93a4.61,4.61,0,0,1,3.77-2.67l5.47-.21a5.85,5.85,0,0,1,4.34,2l3.35,4.33a4.6,4.6,0,0,1,.38,4.6L65.59,243.44A3.08,3.08,0,0,1,62.88,245Zm-6.62-6a2.24,2.24,0,0,0,1.12,2.82L62,244a2.25,2.25,0,0,0,2.88-1l32.63-60.57a3.73,3.73,0,0,0-.31-3.69l-3.35-4.33a5,5,0,0,0-3.65-1.7l-5.47.21a3.75,3.75,0,0,0-3,2.14Z"/><rect class="cls-3" x="87.72" y="163.98" width="16.78" height="1.66" transform="translate(-93.88 182.27) rotate(-65)"/><rect class="cls-3" x="70.12" y="186.76" width="31.13" height="0.83" transform="translate(-120.16 185.66) rotate(-64.98)"/><path class="cls-3" d="M83.7,209,65.22,243.25a2.65,2.65,0,0,1-3.42,1.13l-4.6-2.14a2.68,2.68,0,0,1-1.33-3.35l14.4-36.19,9.38-2.59Z"/><path class="cls-3" d="M83.6,197a1.65,1.65,0,0,0,3,1.4,1.65,1.65,0,1,0-3-1.4"/><path class="cls-3" d="M79.52,195.06a1.64,1.64,0,0,1-2.19.8,1.65,1.65,0,1,1,2.19-.8"/><path class="cls-3" d="M13.13,201.38a3.08,3.08,0,0,1-2.74-1.65l-2.3-4.52a3.07,3.07,0,0,1,1.17-4l59.39-34.73a4.61,4.61,0,0,1,4.61.22l4.45,3.2a5.79,5.79,0,0,1,2.17,4.27l0,5.47a4.59,4.59,0,0,1-2.53,3.86l-63,27.64A2.91,2.91,0,0,1,13.13,201.38Zm-3.45-9.46a2.25,2.25,0,0,0-.85,2.92l2.3,4.51a2.23,2.23,0,0,0,2.86,1l63-27.63a3.74,3.74,0,0,0,2-3.1l0-5.48a5,5,0,0,0-1.83-3.59l-4.45-3.19a3.76,3.76,0,0,0-3.7-.18Z"/><rect class="cls-3" x="78.39" y="157.13" width="16.78" height="1.66" transform="translate(-62.25 56.6) rotate(-27)"/><rect class="cls-3" x="49.23" y="168.75" width="31.13" height="0.83" transform="translate(-69.77 47.89) rotate(-27.02)"/><path class="cls-3" d="M49.82,185.11,14.15,200.76a2.67,2.67,0,0,1-3.39-1.22L8.46,195a2.65,2.65,0,0,1,1-3.45L43.1,171.91l9,3.73Z"/><path class="cls-3" d="M57.13,175.59a1.65,1.65,0,1,0,2.22.72,1.65,1.65,0,0,0-2.22-.72"/><path class="cls-3" d="M55.09,171.59a1.65,1.65,0,1,1,.72-2.22,1.65,1.65,0,0,1-.72,2.22"/><path class="cls-3" d="M186.18,201.38a2.91,2.91,0,0,1-1.19-.24L122,173.5a4.59,4.59,0,0,1-2.53-3.86l0-5.48a5.79,5.79,0,0,1,2.17-4.26l4.45-3.2a4.61,4.61,0,0,1,4.61-.22l59.39,34.73a3.07,3.07,0,0,1,1.17,4l-2.3,4.52A3.08,3.08,0,0,1,186.18,201.38Zm-57.62-44.59a3.49,3.49,0,0,0-2,.59l-4.45,3.19a5.05,5.05,0,0,0-1.83,3.59l0,5.48a3.74,3.74,0,0,0,2,3.1l63,27.63a2.23,2.23,0,0,0,2.86-1l2.3-4.51a2.25,2.25,0,0,0-.85-2.92L130.24,157.2A3.43,3.43,0,0,0,128.56,156.79Z"/><rect class="cls-3" x="111.7" y="149.57" width="1.66" height="16.78" transform="translate(-79.3 186.52) rotate(-63)"/><rect class="cls-3" x="134.1" y="153.6" width="0.83" height="31.13" transform="translate(-77.28 212.22) rotate(-63)"/><path class="cls-3" d="M149.49,185.11l35.67,15.65a2.67,2.67,0,0,0,3.39-1.22l2.3-4.52a2.66,2.66,0,0,0-1-3.45l-33.63-19.66-9,3.73Z"/><path class="cls-3" d="M142.18,175.59a1.65,1.65,0,1,1-2.22.72,1.65,1.65,0,0,1,2.22-.72"/><path class="cls-3" d="M144.22,171.59a1.65,1.65,0,1,0-.72-2.22,1.65,1.65,0,0,0,.72,2.22"/><path class="cls-3" d="M100.06,36.4h0A60.37,60.37,0,0,0,39.66,96.77h60.4Z"/><path class="cls-2" d="M99.71,36.4h0a60.37,60.37,0,0,1,60.37,60.37H99.71Z"/><path class="cls-5" d="M159.58,96.3a60.38,60.38,0,0,1-60.4,60.37h0V96.3Z"/><path class="cls-6" d="M98.73,156.71A60.38,60.38,0,0,1,38.38,96.33H98.73Z"/></g><g class="cls-7"><path class="cls-2" d="M160.38,97.57A60.73,60.73,0,1,1,99.65,36.84a60.72,60.72,0,0,1,60.73,60.73m0,0A60.73,60.73,0,1,1,99.65,36.84a60.72,60.72,0,0,1,60.73,60.73"/><rect class="cls-3" x="71.52" y="34.52" width="4.04" height="73.87" transform="translate(-28.98 72.93) rotate(-45)"/><rect class="cls-3" x="123.75" y="86.75" width="4.04" height="73.87" transform="translate(-50.62 125.16) rotate(-45)"/><rect class="cls-6" x="126.61" y="83.89" width="4.04" height="73.87" transform="translate(-47.76 126.34) rotate(-45)"/><rect class="cls-8" x="74.37" y="31.66" width="4.04" height="73.87" transform="translate(-26.13 74.11) rotate(-45)"/><rect class="cls-6" x="68.66" y="37.37" width="4.04" height="73.87" transform="translate(-31.84 71.74) rotate(-45)"/><rect class="cls-8" x="120.9" y="89.61" width="4.04" height="73.87" transform="translate(-53.48 123.98) rotate(-45)"/><rect class="cls-3" x="36.6" y="121.66" width="73.87" height="4.04" transform="translate(-65.92 88.23) rotate(-45)"/><rect class="cls-3" x="88.84" y="69.43" width="73.87" height="4.04" transform="translate(-13.69 109.86) rotate(-45)"/><rect class="cls-6" x="85.98" y="66.57" width="73.87" height="4.04" transform="translate(-12.5 107) rotate(-45)"/><rect class="cls-8" x="33.75" y="118.81" width="73.87" height="4.04" transform="translate(-64.74 85.37) rotate(-45)"/><rect class="cls-6" x="39.46" y="124.52" width="73.87" height="4.04" transform="translate(-67.1 91.08) rotate(-45)"/><rect class="cls-8" x="91.69" y="72.29" width="73.87" height="4.04" transform="translate(-14.87 112.72) rotate(-45)"/><rect class="cls-3" x="53.02" y="131.19" width="73.87" height="4.04" transform="translate(-62.2 185.01) rotate(-74.77)"/><rect class="cls-3" x="72.42" y="59.91" width="73.87" height="4.04" transform="translate(20.88 151.18) rotate(-74.77)"/><rect class="cls-6" x="68.52" y="58.85" width="73.87" height="4.04" transform="translate(19.05 146.66) rotate(-74.78)"/><rect class="cls-8" x="49.12" y="130.12" width="73.87" height="4.04" transform="translate(-64.05 180.47) rotate(-74.77)"/><rect class="cls-6" x="56.92" y="132.25" width="73.87" height="4.04" transform="translate(-60.35 189.56) rotate(-74.78)"/><rect class="cls-8" x="76.32" y="60.97" width="73.87" height="4.04" transform="translate(22.73 155.72) rotate(-74.77)"/><rect class="cls-3" x="27.07" y="105.21" width="73.87" height="4.04" transform="translate(-25.81 20.47) rotate(-15.16)"/><rect class="cls-3" x="98.37" y="85.89" width="73.87" height="4.04" transform="translate(-18.28 38.45) rotate(-15.16)"/><rect class="cls-6" x="97.31" y="81.99" width="73.87" height="4.04" transform="translate(-17.3 38.05) rotate(-15.17)"/><rect class="cls-8" x="26.01" y="101.31" width="73.87" height="4.04" transform="translate(-24.83 20.06) rotate(-15.16)"/><rect class="cls-6" x="28.13" y="109.11" width="73.87" height="4.04" transform="translate(-26.8 20.88) rotate(-15.16)"/><rect class="cls-8" x="99.43" y="89.79" width="73.87" height="4.04" transform="translate(-19.26 38.86) rotate(-15.16)"/><rect class="cls-3" x="61.96" y="51.09" width="4.04" height="73.87" transform="translate(-37.59 127.08) rotate(-75.02)"/><rect class="cls-3" x="133.32" y="70.18" width="4.04" height="73.87" transform="translate(-3.11 210.17) rotate(-75.02)"/><rect class="cls-6" x="134.36" y="66.27" width="4.04" height="73.87" transform="translate(1.43 208.28) rotate(-75.02)"/><rect class="cls-8" x="63" y="47.19" width="4.04" height="73.87" transform="translate(-33.05 125.19) rotate(-75.02)"/><rect class="cls-6" x="60.91" y="54.99" width="4.04" height="73.87" transform="translate(-42.13 128.98) rotate(-75.03)"/><rect class="cls-8" x="132.27" y="74.08" width="4.04" height="73.87" transform="translate(-7.65 212.06) rotate(-75.02)"/><rect class="cls-3" x="87.77" y="25.04" width="4.04" height="73.87" transform="translate(-13.29 26.23) rotate(-15.49)"/><rect class="cls-3" x="107.5" y="96.23" width="4.04" height="73.87" transform="translate(-31.58 34.08) rotate(-15.49)"/><rect class="cls-6" x="111.39" y="95.15" width="4.04" height="73.87" transform="translate(-31.12 35.04) rotate(-15.47)"/><rect class="cls-8" x="91.67" y="23.96" width="4.04" height="73.87" transform="translate(-12.86 27.23) rotate(-15.49)"/><rect class="cls-6" x="83.88" y="26.12" width="4.04" height="73.87" transform="translate(-13.71 25.21) rotate(-15.48)"/><rect class="cls-8" x="103.6" y="97.31" width="4.04" height="73.87" transform="translate(-32.01 33.08) rotate(-15.49)"/></g><g class="cls-4"><path class="cls-3" d="M99.65,158a61.21,61.21,0,1,1,61.21-61.21A61.28,61.28,0,0,1,99.65,158Zm0-120.75A59.55,59.55,0,1,0,159.2,96.77,59.61,59.61,0,0,0,99.65,37.23Z"/><path class="cls-3" d="M99.65,144.8a48,48,0,1,1,48-48A48.08,48.08,0,0,1,99.65,144.8Zm0-94.39A46.37,46.37,0,1,0,146,96.77,46.42,46.42,0,0,0,99.65,50.41Z"/></g><g class="cls-9"><path class="cls-2" d="M158.93,88.42l-13,1.89L107.42,89,106,50.61l2.5-12.91a59.89,59.89,0,0,0-17.6,0l2.51,12.91L92,89,53.48,90.31l-13-2.08a59.46,59.46,0,0,0,0,17l13-2.08L92,104.42l1.42,38.42-2.58,12.9a60,60,0,0,0,17.75,0L106,142.84l1.42-38.42,38.5-1.28,12.93,2.51a59.28,59.28,0,0,0,.08-17.23"/><path class="cls-3" d="M99.7,157.64a61.29,61.29,0,0,1-9.06-.67l-1.3-.19,2.81-14-1.37-37.11-37.22-1.24-14.12,2.26-.18-1.25a61,61,0,0,1,0-17.35l.18-1.25,14.12,2.26,37.22-1.24,1.37-37.11L89.43,36.66l1.29-.19a61.42,61.42,0,0,1,18,0l1.29.19-2.72,14.05,1.37,37.11,37.23,1.24L160,87l.17,1.24a60.88,60.88,0,0,1-.08,17.6l-.19,1.29-14.07-2.74-37.2,1.24-1.37,37.11,2.81,14-1.3.19A61.29,61.29,0,0,1,99.7,157.64Zm-7.39-3a59,59,0,0,0,14.78,0l-2.35-11.74,1.47-39.73L146,101.88l11.77,2.3a57.41,57.41,0,0,0,.06-14.34L146,91.56h-.11l-39.67-1.32-1.47-39.72L107,38.76a58.79,58.79,0,0,0-14.64,0l2.28,11.76L93.19,90.24,53.4,91.57l-11.83-1.9a56.78,56.78,0,0,0,0,14.11l11.83-1.89h.12l39.67,1.32,1.47,39.73Z"/></g><g class="cls-4"><path class="cls-3" d="M134,77.91a13.48,13.48,0,0,0-2.23-4.74c-.19-.29-.43-.66-.57-.9-.33-2.53-1.24-8.82-6.18-8.82-3.81,0-4.81,3.38-5.14,4.5a4.65,4.65,0,0,1-.37,1,25.68,25.68,0,0,0-2.78,3.27c-.28-.51-.61-1.09-1-1.77-.26-.45-.6-1-.74-1.32s-.08-.41-.12-.67c-.41-2.22-1.25-6.84-5.39-6.84-4.86,0-5.75,5.17-6,6.87l-.06.33c-.23.25-.57.59-.83.85-.94.95-2,2-3,3.19-.25-.46-.5-.86-.71-1.22-.08-.12-.15-.24-.22-.36s0-.43-.06-.68c-.2-2.39-.68-8-5.49-8-3.92,0-5.19,3.93-5.94,6.27a14,14,0,0,1-.53,1.5c-.9.92-3.78,3.89-4.64,5.61a9.28,9.28,0,0,0-.6,2l-1-1.18c-.31-.37-.74-.88-1-1.23,0-.19,0-.43,0-.63-.14-1.94-.57-7.85-6.22-7.85-4.86,0-5.22,5.39-5.34,7.17,0,.2,0,.46,0,.67-.28.38-.69.93-1,1.4-2.07,2.76-3.1,4.17-3.5,5.19-.16.39-.63,1.56-1.1,7.73l3.43.26a51.77,51.77,0,0,1,.86-6.71c.43-1.08,3.88-5.38,4.52-6.39s-.21-5.88,2.23-5.88c3.44,0,2.43,5.31,3.08,6.46s2.87,3.37,3.37,4.52a18.33,18.33,0,0,1,1.79,8.29h2.22c0-.11.58-10.52,1.44-12.24a31.82,31.82,0,0,1,4.16-4.88c1.29-1.29,1.58-6.6,3.87-6.6s1.87,5.6,2.3,6.46a23.64,23.64,0,0,1,2,3.87C98,78.12,98.32,85,99.56,85s.62-6.74,1.72-8.61c1.28-2.17,4.59-5,5.16-5.88s.29-5.45,3-5.45c1.72,0,1.91,4.4,2.29,5.31s2.68,4.5,2.82,5.5.29,7.26,1.63,7.26c1,0,2.58-7.55,3-8.41a18.49,18.49,0,0,1,2.58-3.2c1.87-1.68,1-4.64,3.21-4.64s2.67,5.21,2.82,6.21,2.44,3.49,2.77,5.41.29,11.38.29,11.38h3.44c0-2.31,0-10-.34-12"/><path class="cls-2" d="M130.59,78.51c-.33-1.92-2.63-4.4-2.77-5.41s-.67-6.21-2.82-6.21-1.34,3-3.21,4.64a18.49,18.49,0,0,0-2.58,3.2c-.43.86-2,8.41-3,8.41-1.34,0-1.48-6.26-1.63-7.26s-2.44-4.59-2.82-5.5-.57-5.31-2.29-5.31c-2.73,0-2.44,4.59-3,5.45s-3.88,3.71-5.16,5.88C100.18,78.27,101,85,99.56,85S98,78.12,97.41,76.4a23.64,23.64,0,0,0-2-3.87c-.43-.86,0-6.45-2.3-6.45s-2.58,5.3-3.87,6.59a31.82,31.82,0,0,0-4.16,4.88c-.76,1.53-1.3,9.7-1.41,10.92h47.22c0-1.8,0-8.46-.29-10"/><path class="cls-2" d="M79.62,81.49c-.5-1.14-2.72-3.37-3.37-4.51s.36-6.46-3.08-6.46c-2.44,0-1.58,4.88-2.23,5.88s-4.09,5.31-4.52,6.39a38.74,38.74,0,0,0-.77,5.68h15.7a18.46,18.46,0,0,0-1.73-7"/><path class="cls-3" d="M130.06,98.8c.65.43,1.31,1.31,1.06,1.56a1.54,1.54,0,0,1-1.51-.07c-.29-.29-3.23-3.23-4.09-3.23s-1.5,4.3-1.5,6.17.07,9.68.07,10.54a1,1,0,0,1-1,1.15,1.42,1.42,0,0,1-.71-1.29c0-.86-1.17-6.89-1.51-6.89-.5,0-1.72,4.09-1.72,7a1.27,1.27,0,0,1-.93,1.22c-.36,0-.79-.86-.79-1.36s.07-8.25.07-9.26.79-4.23.79-5.16-.22-3.3-.65-3.3c-1.29,0-.64,1.22-1.79,1.22s-2.65-6.31-4.59-6.31c-1.43,0-1.65,2.22-1.65,3.66s-.14,9.89-.14,11.61-.58,6.32-.58,6.82-.21,1.43-.93,1.43-.86-1.93-.86-2.51.14-9-1.15-9-3.3,9-3.3,9.9a1.62,1.62,0,0,1-1.22,1.43,1.92,1.92,0,0,1-1.29-1.58c0-.86,2.3-13.19,2.3-14.49s.86-7.81,0-7.81c-1.72,0-1.22,4-2.87,4s-2.49-3.65-4.09-3.65c-.72,0-.29,5.52-.29,6.45s2.73,6.1,2.73,6.67-2.65.07-2.65.65-.08,7.45-.08,8a1.08,1.08,0,0,1-1,1c-.5,0-1.08-.86-1.08-1.29s-1.36-6-1.72-6-1.5,4.87-1.5,5.59-.22,1.44-.79,1.44-1-.79-1-1.44.08-7,.15-7.39-2.8-.43-2.8-1.07S88,96.48,88,96s.65-5,.22-5c-2.73,0-4.45,5.74-6.39,5.74-1.14,0-2.58-1.43-3-1s-.75,3.48-.14,4.09a25.06,25.06,0,0,1,3.08,3.8c0,.36-2.44,1.86-2.44,2.29s.07,4.59.07,5-.43,1.58-.93,1.58-1.29-.36-1.29-1.08-.5-4.87-1.43-4.87-1.29,4.16-1.29,4.66-.43,1.58-1.08,1.58a1.82,1.82,0,0,1-1.5-1.22c0-.43.07-5.38.07-5.74s-2.8-.57-2.8-.86,2.58-3.73,2.58-4,.36-4.09-.43-4.09-4.88,3.52-5.23,3.88-1.58.36-1.58,0-.15-1.36.21-1.72,4.38-3.66,4.74-4.45A35,35,0,0,0,70.15,89c0-.43.94-4.45,3.59-4.45,4.52,0,4.3,9.18,7.46,9.18,2.65,0,2.87-4.16,3.58-5.59s1.87-2.59,2.3-3.88S88.66,76,91.67,76s5.31,12.2,7.17,12.2c2.06,0,1.87-4.74,2.73-5.74a15.17,15.17,0,0,1,3.3-2.3,11,11,0,0,1-.82-3.11c0-1.14,1.1-3.2,2.54-3.2a2.78,2.78,0,0,1,3,2.73,10.93,10.93,0,0,1-.43,3.15,8.51,8.51,0,0,1,3,2.73C113,84,114.76,93,116.92,93c1.14,0,1-2,1.72-2.44A5.31,5.31,0,0,0,119.78,89a21,21,0,0,1-.43-2.87c0-.86,1.44-1.87,2.73-1.87s2.15,2.58,2.15,3.44a16.69,16.69,0,0,0,2.1,5.55Z"/></g><path class="cls-6" d="M35.35,90.19l-13-5.34.19-1.15,14.05-1.1-.2,1.23-4.25.27-.55,3.41,3.94,1.55ZM30.18,87l.45-2.75-3.87.22c-1.2.08-2.16.11-2.9.12a24.75,24.75,0,0,1,2.51.86Z"/><path class="cls-6" d="M36.7,82.1,23.59,78.16l.47-1.56,9.85.92,2.05.21c-.46-.23-1.12-.59-2-1l-8.55-4.62.42-1.4L39,74.6l-.3,1-11-3.3L38,77.89l-.28.93L25.85,77.75,37,81.1Z"/><path class="cls-6" d="M39.53,73.23l-12.48-5.6,2.42-5.41,1.48.66L29,67.3,32.78,69l1.86-4.14,1.47.66-1.86,4.15,4.25,1.9L40.56,67l1.48.66Z"/><path class="cls-6" d="M42.6,66.56,30.87,59.51l1.88-3.12a3,3,0,0,1,1.19-1.24A2.67,2.67,0,0,1,35.49,55a5.58,5.58,0,0,1,1.95.77,4.71,4.71,0,0,1,1.85,1.8,2.64,2.64,0,0,1,.16,2.1,3.14,3.14,0,0,1,1-.21,10.19,10.19,0,0,1,1.94.17l3.93.69-.7,1.17-3-.53a18.94,18.94,0,0,0-2.42-.33,2.23,2.23,0,0,0-1,.13,1.57,1.57,0,0,0-.61.62L38,62.5l5.21,3.13Zm-6-4.87,1.2-2a2.15,2.15,0,0,0,.38-1.12,1.69,1.69,0,0,0-.35-1,3.22,3.22,0,0,0-1-.85,2.74,2.74,0,0,0-1.63-.46,1.55,1.55,0,0,0-1.19.83l-1.33,2.22Z"/><path class="cls-6" d="M47,59.56,36,51.54l.64-.88,11.08,8Z"/><path class="cls-6" d="M48.82,49.73l1-.53a7.37,7.37,0,0,1,1.78,3.21,2.72,2.72,0,0,1-.58,2.41,2.78,2.78,0,0,1-1.85,1,5.66,5.66,0,0,1-2.71-.6A13.49,13.49,0,0,1,43.17,53a12.38,12.38,0,0,1-2.56-2.89,5.39,5.39,0,0,1-.88-2.61,2.87,2.87,0,0,1,.68-2,2.59,2.59,0,0,1,2.1-.88,6.2,6.2,0,0,1,3,1l-.38,1.08q-2.5-1.44-3.59-.2A2,2,0,0,0,41.08,48a4,4,0,0,0,.73,1.9,10.81,10.81,0,0,0,2.09,2.28,9.68,9.68,0,0,0,3.66,2.21,2.17,2.17,0,0,0,2.33-.54,1.87,1.87,0,0,0,.34-1.72A5.53,5.53,0,0,0,48.82,49.73Z"/><path class="cls-6" d="M53.27,51.91,46.38,39.68l.85-.79,11.71,7.84-.91.84-3.5-2.42L52,47.48l2.14,3.66Zm-2.05-5.73,2.06-1.89-3.19-2.22c-1-.68-1.76-1.25-2.34-1.7a23.47,23.47,0,0,1,1.43,2.23Z"/><path class="cls-6" d="M59.41,46.4l-8-11.13.9-.64,9.78,6.24-6.27-8.76.84-.6,8,11.13-.9.64L54,37l6.28,8.75Z"/><path class="cls-6" d="M68.93,40.2,62.52,28.11l.95-.51,6.42,12.09Z"/><path class="cls-6" d="M71.36,38.86,66,26.26l1-.43,8.18,8.22L71,24.14l.95-.41,5.35,12.6-1,.44-8.18-8.23,4.21,9.91Z"/><g class="cls-4"><path class="cls-6" d="M78.74,35.82,75,22.66l2.72-.78a3.84,3.84,0,0,1,1.61-.19,2.88,2.88,0,0,1,1.52.81,7.27,7.27,0,0,1,1.38,1.88,14.46,14.46,0,0,1,1.14,2.93,13.15,13.15,0,0,1,.6,3.93,4.85,4.85,0,0,1-.6,2.56A3,3,0,0,1,81.59,35Zm.6-1.85L81,33.49a2.42,2.42,0,0,0,1.42-.89,3.11,3.11,0,0,0,.39-1.69,12.47,12.47,0,0,0-.54-3.31,10.41,10.41,0,0,0-1.29-3,3,3,0,0,0-1.46-1.24,2.77,2.77,0,0,0-1.4.12l-1.66.47Z"/><path class="cls-6" d="M86.77,33.74,84.17,20.3l1.07-.2,2.59,13.43Z"/><path class="cls-6" d="M88.62,33.28l1.65-14,1.16-.13,4.83,13.24L95,32.58l-1.4-4-3.44.38-.43,4.21Zm1.73-5.84,2.78-.31-1.27-3.67c-.38-1.13-.68-2.05-.88-2.76,0,.88-.07,1.77-.16,2.65Z"/><path class="cls-6" d="M96.82,32.42,97,18.74h1.12l4.14,10.84.17-10.77,1,0-.22,13.68h-1.12L98,21.67l-.17,10.77Z"/><path class="cls-6" d="M108,33l2.31-13.49,5.45.93L115.48,22l-4.38-.75-.72,4.18,3.8.65-.28,1.59L110.11,27l-1,6.13Z"/><path class="cls-6" d="M113.1,33.78l6.7-12.35,1.12.31-.42,14.09-1.19-.33.18-4.25-3.32-.92-2,3.75ZM116.87,29l2.69.75.19-3.88c0-1.2.12-2.16.2-2.89-.34.81-.72,1.61-1.13,2.4Z"/></g><path class="cls-6" d="M121,36l5.33-12.61,1.5.64-2,9.68-.43,2c.28-.43.7-1,1.26-1.85l5.52-8,1.34.57-5.32,12.61-1-.41,4.46-10.54-6.66,9.61-.9-.38,2.34-11.65L122,36.41Z"/><path class="cls-6" d="M129.73,40l6.51-12,.95.51-6.51,12Z"/><path class="cls-6" d="M132.13,41.25l7.35-11.55.92.59-6.49,10.18,3.41,2.17L136.45,44Z"/><path class="cls-6" d="M138.51,45.56,142.06,41l2.33-8.17,1.05.81-1.26,4.25c-.25.85-.5,1.63-.75,2.35.63-.42,1.36-.87,2.19-1.36l3.72-2.21,1,.77-7.43,4.23-3.55,4.58Z"/><path class="cls-6" d="M152.07,51.71l.41,1.11a7.32,7.32,0,0,1-3.38,1.41,2.78,2.78,0,0,1-3.1-2.79,5.49,5.49,0,0,1,.89-2.63,13.78,13.78,0,0,1,2.56-3.08,12.37,12.37,0,0,1,3.15-2.22,5.38,5.38,0,0,1,2.69-.58,2.8,2.8,0,0,1,1.92.89,2.63,2.63,0,0,1,.65,2.19,6.24,6.24,0,0,1-1.36,2.89l-1-.49q1.71-2.34.59-3.55a2,2,0,0,0-1.39-.65,4,4,0,0,0-2,.52,10.88,10.88,0,0,0-2.5,1.82,9.66,9.66,0,0,0-2.6,3.4,2.16,2.16,0,0,0,.28,2.37,1.9,1.9,0,0,0,1.67.54A5.59,5.59,0,0,0,152.07,51.71Z"/><path class="cls-6" d="M150,56.64,161,48.58l3.49,4.8-1.3.95-2.86-3.92L157,52.88l2.68,3.66-1.31,1-2.67-3.66-3.77,2.74,3,4.07-1.31,1Z"/><path class="cls-6" d="M154.22,62.61l11.94-6.69.55,1-7.29,9,9.39-5.26.51.9-11.94,6.69-.54-1,7.29-9-9.4,5.26Z"/><path class="cls-6" d="M158.84,71.61,170,67l-1-2.49,1.49-.62,2.51,6-1.49.62-1-2.51-11.14,4.66Z"/><path class="cls-6" d="M160.59,76l13.13-3.85,1.67,5.69-1.55.46-1.37-4.65-4,1.17,1.28,4.36-1.55.45-1.28-4.35-4.47,1.31,1.42,4.83-1.55.46Z"/><path class="cls-6" d="M162.58,83l13.5-2.26.6,3.59a2.91,2.91,0,0,1-.1,1.72,2.64,2.64,0,0,1-1.11,1.09,5.64,5.64,0,0,1-2,.69,4.75,4.75,0,0,1-2.57-.17,2.65,2.65,0,0,1-1.49-1.5,3.12,3.12,0,0,1-.64.82,10.83,10.83,0,0,1-1.58,1.13l-3.43,2-.23-1.34,2.63-1.55a19.43,19.43,0,0,0,2.06-1.32,2.05,2.05,0,0,0,.66-.75,1.51,1.51,0,0,0,.06-.87l-.2-1.23-6,1Zm7.72-.19.39,2.3a2.13,2.13,0,0,0,.44,1.1,1.62,1.62,0,0,0,.88.49,3.09,3.09,0,0,0,1.29,0,2.67,2.67,0,0,0,1.53-.7,1.57,1.57,0,0,0,.37-1.4l-.43-2.56Z"/><g class="cls-4"><path class="cls-3" d="M89.19,154.94a34.85,34.85,0,0,0,21,.14"/><path class="cls-3" d="M99.92,157.47h-.68a36,36,0,0,1-10.31-1.73l.51-1.58a34.08,34.08,0,0,0,20.55.14l.48,1.59A36.14,36.14,0,0,1,99.92,157.47Z"/></g><rect class="cls-3" x="97.89" y="157.37" width="3.49" height="2.15"/><rect class="cls-3" x="109.33" y="155.37" width="3.49" height="2.15"/><rect class="cls-3" x="97.89" y="157.37" width="3.49" height="2.15"/><rect class="cls-3" x="86.37" y="155.4" width="3.65" height="2.16"/><g class="cls-4"><path class="cls-3" d="M36.47,102.35a.81.81,0,0,0-.62-.77,2.16,2.16,0,0,0-2.12.26h0c-.17.11-.32.24-.49.35a.08.08,0,0,1,0,0l-.1.07a.35.35,0,0,1-.15.12v0c-.52.33-1,0-1.58-.16h.08l-.05,0a2,2,0,0,1-1-1,1.13,1.13,0,0,1-.11-.34.31.31,0,0,1,0-.1,6.68,6.68,0,0,1-.13-.78s0-.07,0-.11a3.18,3.18,0,0,0-.06-.43c-.06-.44-.16-.87-.25-1.3a6.88,6.88,0,0,1-.13-.91v0a8.35,8.35,0,0,1-.09-1.41,2.89,2.89,0,0,1,0-.37l0-1a10.83,10.83,0,0,1-.12-1.13A5.26,5.26,0,0,0,29,92a1.37,1.37,0,0,0-.4-.26.46.46,0,0,0-.65.38c-.06.24-.12.48-.17.73-.05.51-.07,1-.16,1.54-.06,1.06-.31,4-1.37,3.27a.37.37,0,0,1-.13-.15.29.29,0,0,1-.1-.09,6.94,6.94,0,0,1-.55-1.13c-.29-.76-.51-1.56-.81-2.3a15.18,15.18,0,0,0-.94-1.79.62.62,0,0,0-1-.22c-.34.25-.29.69-.28,1s0,.45.05.68a1.07,1.07,0,0,1,.06.17c.1.79.23,1.6.39,2.38a1,1,0,0,1,.05.24c.07.3.17.59.25.89a.24.24,0,0,1,0,.08h0a.71.71,0,0,1,.07.35v0a2.29,2.29,0,0,1,0,.25,2.61,2.61,0,0,1,0,.4h0l0,.1a1.56,1.56,0,0,1-.1.37,1.61,1.61,0,0,1-.12.33.37.37,0,0,1-.36.14c-.41-.12-.65-.49-1-.94h0a.36.36,0,0,1-.07-.1,1,1,0,0,1-.17-.27l0-.06a2.93,2.93,0,0,1-.28-.56c-.5-.9-1-1.84-1.92-2.14l-.16.07a1.51,1.51,0,0,0-.37.78,4.76,4.76,0,0,0,.26,1.42c.18.57.52,1,.74,1.61,0,0,0,0,0,0a8.15,8.15,0,0,1,.5,1.08v0a4.76,4.76,0,0,1,.3.7c.26.78.09,1.14-.63,1.12s-1.18-.12-1.77-.19-1.23-.18-1.85-.2c-.42,0-.61.34-.43.79a2.76,2.76,0,0,0,1.31,1.4c.58.3,1.17.57,1.76.81a2.7,2.7,0,0,1,1.3,1,1.24,1.24,0,0,1,.1.2,1.56,1.56,0,0,1,.16.2,7.3,7.3,0,0,1,.5,1h0c.1.21.19.43.28.66.27.54.59,1.06.91,1.57l.09.13a3.08,3.08,0,0,0,1.33,1,3.4,3.4,0,0,0,3.06-.55.55.55,0,0,1,.72,0,1.8,1.8,0,0,0,2,.09,7,7,0,0,0,2.69-3,1.09,1.09,0,0,0,.08-.15.88.88,0,0,1,0-.15,6.49,6.49,0,0,1,.65-1,4.46,4.46,0,0,1,1.4-1.46l.12-.1a.4.4,0,0,1,.14-.15,12.65,12.65,0,0,0,1.16-.92c.22-.16.7-.44.71-.8v-.07"/><path class="cls-3" d="M162.83,102.39a.8.8,0,0,1,.61-.77,2.14,2.14,0,0,1,2.12.27v0h0c.17.11.33.24.49.35,0,0,0,0,0,0l.1.07a.28.28,0,0,0,.16.12v0c.52.33,1,0,1.58-.16h-.08l0,0a2.08,2.08,0,0,0,1-1,.72.72,0,0,0,.11-.34.31.31,0,0,0,0-.1,6.34,6.34,0,0,0,.13-.78.36.36,0,0,0,0-.1l.06-.44c.06-.44.16-.87.25-1.3a4.64,4.64,0,0,0,.13-.91v0a8.35,8.35,0,0,0,.09-1.41,1.77,1.77,0,0,0,0-.37c0-.32,0-.65,0-1a8.49,8.49,0,0,0,.12-1.13,5.69,5.69,0,0,1,.37-1.39,1.21,1.21,0,0,1,.39-.26.47.47,0,0,1,.66.38c0,.24.11.48.16.73.06.51.07,1,.16,1.54.06,1.06.31,4,1.38,3.27a.44.44,0,0,0,.12-.15.25.25,0,0,0,.11-.09,9.07,9.07,0,0,0,.55-1.13c.28-.76.5-1.56.81-2.3a13.77,13.77,0,0,1,.93-1.79.63.63,0,0,1,1-.22c.34.25.29.69.28,1s0,.45,0,.68a.38.38,0,0,0-.06.17c-.1.8-.24,1.6-.4,2.39a.86.86,0,0,0-.05.23c-.06.3-.17.6-.25.89a.24.24,0,0,0,0,.08h0a.57.57,0,0,0-.08.34v0a2.18,2.18,0,0,0,0,.25,1.77,1.77,0,0,0,0,.4h0l0,.11a1.61,1.61,0,0,0,.1.36,3.42,3.42,0,0,0,.13.34.37.37,0,0,0,.35.13c.41-.11.66-.49,1-.94h0a.23.23,0,0,0,.07-.1.77.77,0,0,0,.17-.27l0-.06a3.64,3.64,0,0,0,.27-.56c.5-.9,1-1.84,1.92-2.14l.16.07a1.54,1.54,0,0,1,.37.79,4.75,4.75,0,0,1-.26,1.41c-.18.58-.52,1-.74,1.61a0,0,0,0,1,0,0,8.15,8.15,0,0,0-.5,1.08v0a4.76,4.76,0,0,0-.3.7c-.26.78-.08,1.14.63,1.12s1.19-.12,1.78-.19,1.23-.18,1.84-.2c.42,0,.61.34.44.79a2.78,2.78,0,0,1-1.32,1.4c-.58.3-1.16.57-1.76.81a2.7,2.7,0,0,0-1.3,1,1.24,1.24,0,0,0-.1.2,1,1,0,0,0-.15.2,7.35,7.35,0,0,0-.51,1h0a6.54,6.54,0,0,0-.28.66c-.28.54-.6,1.06-.91,1.58l-.1.12a3.19,3.19,0,0,1-1.33,1,3.43,3.43,0,0,1-3.06-.56.54.54,0,0,0-.72,0,1.8,1.8,0,0,1-2,.08,6.91,6.91,0,0,1-2.7-3l-.08-.15a.88.88,0,0,0-.05-.15,5.86,5.86,0,0,0-.65-1,4.46,4.46,0,0,0-1.4-1.46l-.12-.1a.33.33,0,0,0-.14-.15,14.17,14.17,0,0,1-1.16-.92c-.22-.16-.7-.44-.71-.8a.15.15,0,0,0,0-.07"/></g></svg>