<?xml version="1.0" encoding="UTF-8"?>
<svg width="235px" height="22px" viewBox="0 0 235 22" version="1.1" xmlns="http://www.w3.org/2000/svg" xmlns:xlink="http://www.w3.org/1999/xlink">
    <title>Heading_Pattern@1x</title>
    <g id="Page-1" stroke="none" stroke-width="1" fill="none" fill-rule="evenodd">
        <g id="AIFC Board Portal-Landing-Page" transform="translate(-395.000000, -286.000000)" fill="#F6EB14">
            <g id="Heading_Pattern" transform="translate(395.000000, 286.000000)">
                <path d="M39.0537,0.0004 L-0.0003,10.5144 L39.0537,21.0284 L78.1067,10.5144 L39.0537,0.0004 Z M8.9087,10.5144 L39.0537,2.3984 L69.1977,10.5144 L39.0537,18.6294 L8.9087,10.5144 Z" id="Fill-1"></path>
                <path d="M40.2415,11.7017 L40.2415,14.2017 L37.8655,14.2017 L37.8655,11.7017 L35.3665,11.7017 L35.3665,9.3267 L37.8655,9.3267 L37.8655,6.8267 L40.2415,6.8267 L40.2415,9.3267 L42.7415,9.3267 L42.7415,11.7017 L40.2415,11.7017 Z M39.0535,4.9037 L18.2155,10.5147 L39.0535,16.1237 L59.8915,10.5147 L39.0535,4.9037 Z" id="Fill-2"></path>
                <path d="M117.1602,0.0004 L78.1062,10.5144 L117.1602,21.0284 L156.2132,10.5144 L117.1602,0.0004 Z M87.0152,10.5144 L117.1602,2.3984 L147.3042,10.5144 L117.1602,18.6294 L87.0152,10.5144 Z" id="Fill-3"></path>
                <path d="M118.3479,11.7017 L118.3479,14.2017 L115.9719,14.2017 L115.9719,11.7017 L113.4729,11.7017 L113.4729,9.3267 L115.9719,9.3267 L115.9719,6.8267 L118.3479,6.8267 L118.3479,9.3267 L120.8479,9.3267 L120.8479,11.7017 L118.3479,11.7017 Z M117.1599,4.9037 L96.3219,10.5147 L117.1599,16.1237 L137.9979,10.5147 L117.1599,4.9037 Z" id="Fill-4"></path>
                <path d="M195.2667,0.0004 L156.2127,10.5144 L195.2667,21.0284 L234.3197,10.5144 L234.3197,10.5144 L195.2667,0.0004 Z M165.1227,10.5144 L195.2667,2.3984 L225.4107,10.5144 L195.2667,18.6294 L165.1227,10.5144 Z" id="Fill-5"></path>
                <path d="M196.4543,11.7017 L196.4543,14.2017 L194.0783,14.2017 L194.0783,11.7017 L191.5793,11.7017 L191.5793,9.3267 L194.0783,9.3267 L194.0783,6.8267 L196.4543,6.8267 L196.4543,9.3267 L198.9543,9.3267 L198.9543,11.7017 L196.4543,11.7017 Z M195.2663,4.9037 L174.4283,10.5147 L195.2663,16.1237 L216.1043,10.5147 L195.2663,4.9037 Z" id="Fill-6"></path>
            </g>
        </g>
    </g>
</svg>