<?xml version="1.0" encoding="UTF-8"?>
<svg width="53px" height="38px" viewBox="0 0 53 38" version="1.1" xmlns="http://www.w3.org/2000/svg" xmlns:xlink="http://www.w3.org/1999/xlink">
    <title>hamburger menu</title>
    <g id="Page-1" stroke="none" stroke-width="1" fill="none" fill-rule="evenodd">
        <g id="AIFC Board Portal-Homepage---Mobile" transform="translate(-252.000000, -26.000000)" fill="#AB2C2C">
            <g id="hamburger-menu" transform="translate(252.000000, 26.000000)">
                <path d="M1,-2.84217094e-14 L52,-2.84217094e-14 C52.5522847,-2.85231625e-14 53,0.44771525 53,1 L53,6 C53,6.55228475 52.5522847,7 52,7 L1,7 C0.44771525,7 6.76353751e-17,6.55228475 0,6 L0,1 C-6.76353751e-17,0.44771525 0.44771525,-2.83202564e-14 1,-2.84217094e-14 Z" id="Rectangle-10"></path>
                <path d="M1,16 L52,16 C52.5522847,16 53,16.4477153 53,17 L53,22 C53,22.5522847 52.5522847,23 52,23 L1,23 C0.44771525,23 6.76353751e-17,22.5522847 0,22 L0,17 C-6.76353751e-17,16.4477153 0.44771525,16 1,16 Z" id="Rectangle-10-Copy"></path>
                <rect id="Rectangle-10-Copy-2" x="0" y="31" width="53" height="7" rx="1"></rect>
            </g>
        </g>
    </g>
</svg>