<?xml version="1.0" encoding="UTF-8"?>
<svg width="110px" height="87px" viewBox="0 0 110 87" version="1.1" xmlns="http://www.w3.org/2000/svg" xmlns:xlink="http://www.w3.org/1999/xlink">
    <title>“</title>
    <g id="Page-1" stroke="none" stroke-width="1" fill="none" fill-rule="evenodd">
        <g id="AIFC Board Portal-Homepage-2" transform="translate(-114.000000, -2503.000000)" fill="#25457A" fill-rule="nonzero">
            <g id="Group-2" transform="translate(0.000000, 2443.000000)">
                <path d="M142.428928,147 C148.247714,147 153.297589,145.017094 157.578554,141.051282 C161.859518,137.08547 164,132.458689 164,127.17094 C164,124.609687 163.605154,122.131054 162.815461,119.735043 C162.025769,117.339031 160.674979,115.149573 158.763092,113.166667 C156.76808,111.10114 154.149626,109.490028 150.907731,108.333333 C147.665835,107.176638 143.467997,106.598291 138.314214,106.598291 L138.314214,106.598291 L131.331671,106.598291 C132.162926,98.005698 135.23857,90.6937322 140.558603,84.6623932 C145.878637,78.6310541 153.235245,73.3433048 162.628429,68.7991453 L162.628429,68.7991453 L157.142145,60 C145.255195,65.2051282 135.093101,72.8475783 126.65586,82.9273504 C118.21862,93.0071225 114,103.004274 114,112.918803 C114,123.576923 116.452203,131.921652 121.356608,137.952991 C126.261014,143.98433 133.285121,147 142.428928,147 Z M202.428928,147 C208.247714,147 213.297589,145.017094 217.578554,141.051282 C221.859518,137.08547 224,132.458689 224,127.17094 C224,124.609687 223.605154,122.131054 222.815461,119.735043 C222.025769,117.339031 220.674979,115.149573 218.763092,113.166667 C216.76808,111.10114 214.149626,109.490028 210.907731,108.333333 C207.665835,107.176638 203.467997,106.598291 198.314214,106.598291 L198.314214,106.598291 L191.331671,106.598291 C192.162926,98.005698 195.23857,90.6937322 200.558603,84.6623932 C205.878637,78.6310541 213.235245,73.3433048 222.628429,68.7991453 L222.628429,68.7991453 L217.142145,60 C205.255195,65.2051282 195.093101,72.8475783 186.65586,82.9273504 C178.21862,93.0071225 174,103.004274 174,112.918803 C174,123.576923 176.452203,131.921652 181.356608,137.952991 C186.261014,143.98433 193.285121,147 202.428928,147 Z" id="“"></path>
            </g>
        </g>
    </g>
</svg>