<?xml version="1.0" encoding="UTF-8"?>
<svg width="27px" height="27px" viewBox="0 0 27 27" version="1.1" xmlns="http://www.w3.org/2000/svg" xmlns:xlink="http://www.w3.org/1999/xlink">
    <title>social_twitter</title>
    <defs>
        <polygon id="path-1" points="0 0 26.9996 0 26.9996 27 0 27"></polygon>
    </defs>
    <g id="Page-1" stroke="none" stroke-width="1" fill="none" fill-rule="evenodd">
        <g id="AIFC Board Portal-Homepage-2" transform="translate(-771.000000, -3742.000000)">
            <g id="Group-13" transform="translate(0.000000, 3418.000000)">
                <g id="Group-15" transform="translate(693.000000, 324.000000)">
                    <g id="social_twitter" transform="translate(78.000000, 0.000000)">
                        <g id="Group-3">
                            <mask id="mask-2" fill="white">
                                <use xlink:href="#path-1"></use>
                            </mask>
                            <g id="Clip-2"></g>
                            <path d="M13.4996,0 C20.9556,0 26.9996,6.044 26.9996,13.5 C26.9996,20.956 20.9556,27 13.4996,27 C6.0446,27 -0.0004,20.956 -0.0004,13.5 C-0.0004,6.044 6.0446,0 13.4996,0" id="Fill-1" fill="#FFFFFF" mask="url(#mask-2)"></path>
                        </g>
                        <path d="M19.6502,9.9502 C20.2492,9.5502 20.7492,8.9502 20.9502,8.2502 C20.3502,8.5502 19.7492,8.8502 19.0502,8.9502 C18.5502,8.3502 17.7492,7.9502 16.8502,7.9502 C15.2492,7.9502 13.8502,9.3502 13.8502,10.9502 C13.8502,11.1502 13.8502,11.4502 13.9502,11.6502 C11.5502,11.6502 9.3502,10.4502 7.8502,8.5502 C7.5502,9.0502 7.4502,9.5502 7.4502,10.0502 C7.4502,11.1502 7.9502,12.0502 8.7492,12.5502 C8.2492,12.5502 7.8502,12.3502 7.4502,12.1502 C7.4502,13.6502 8.4502,14.8502 9.8502,15.1502 C9.5502,15.3502 9.3502,15.4502 9.0502,15.4502 C8.8502,15.4502 8.6502,15.4502 8.4502,15.3502 C8.8502,16.5502 9.9502,17.4502 11.2492,17.4502 C10.2492,18.2502 8.9502,18.7502 7.5502,18.7502 L6.8502,18.7502 C8.1502,19.6502 9.7492,20.1502 11.3502,20.1502 C16.8502,20.1502 19.7492,15.5502 19.7492,11.4502 L19.7492,11.0502 C20.4502,10.6502 20.9502,10.0502 21.3502,9.4502 C20.8502,9.6502 20.2492,9.8502 19.6502,9.9502 Z" id="Fill-4" fill="#1F1D1D"></path>
                    </g>
                </g>
            </g>
        </g>
    </g>
</svg>