<svg id="Layer_1" data-name="Layer 1" xmlns="http://www.w3.org/2000/svg" xmlns:xlink="http://www.w3.org/1999/xlink" width="27" height="27" viewBox="0 0 27 27"><defs><style>.cls-1{fill:#fff;fill-rule:evenodd;}.cls-2{mask:url(#mask);}.cls-3{fill:#1f1d1d;}</style><mask id="mask" x="0" y="0" width="27" height="27" maskUnits="userSpaceOnUse"><g id="mask-2"><polygon id="path-1" class="cls-1" points="0 0 27 0 27 27 0 27 0 0"/></g></mask></defs><title>social_youtube</title><g id="Page-1"><g id="AIFC Board Portal-Homepage-2"><g id="Group-13"><g id="social_fb" data-name="social fb"><g id="Group-3"><g class="cls-2"><path id="Fill-1" class="cls-1" d="M13.5,0A13.5,13.5,0,1,1,0,13.5,13.49,13.49,0,0,1,13.5,0"/></g></g></g></g></g></g><path class="cls-3" d="M16.65,13.51,11.3,16.65v-6.3Zm5,2.94v-5.9A2.79,2.79,0,0,0,19,7.71H8.1a2.78,2.78,0,0,0-2.79,2.78v6A2.79,2.79,0,0,0,8,19.29H18.9a2.78,2.78,0,0,0,2.79-2.78v-.06"/></svg>