<?xml version="1.0" encoding="UTF-8"?>
<svg width="27px" height="27px" viewBox="0 0 27 27" version="1.1" xmlns="http://www.w3.org/2000/svg" xmlns:xlink="http://www.w3.org/1999/xlink">
    <title>social_fb</title>
    <defs>
        <polygon id="path-1" points="0 0.0001 26.9999 0.0001 26.9999 27 0 27"></polygon>
    </defs>
    <g id="Page-1" stroke="none" stroke-width="1" fill="none" fill-rule="evenodd">
        <g id="AIFC Board Portal-Homepage-2" transform="translate(-693.000000, -3742.000000)">
            <g id="Group-13" transform="translate(0.000000, 3418.000000)">
                <g id="social_fb" transform="translate(693.000000, 324.000000)">
                    <g id="Group-3">
                        <mask id="mask-2" fill="white">
                            <use xlink:href="#path-1"></use>
                        </mask>
                        <g id="Clip-2"></g>
                        <path d="M13.4999,0.0001 C20.9559,0.0001 26.9999,6.0441 26.9999,13.5001 C26.9999,20.9561 20.9559,27.0001 13.4999,27.0001 C6.0439,27.0001 -0.0001,20.9561 -0.0001,13.5001 C-0.0001,6.0441 6.0439,0.0001 13.4999,0.0001" id="Fill-1" fill="#FFFFFF" mask="url(#mask-2)"></path>
                    </g>
                    <path d="M10.35,10.7999 L11.95,10.7999 L11.95,9.1999 C11.95,8.4999 11.95,7.3999 12.45,6.7999 C12.95,6.0999 13.75,5.5999 14.95,5.5999 C16.95,5.5999 17.85,5.8999 17.85,5.8999 L17.45,8.2999 C17.45,8.2999 16.75,8.0999 16.15,8.0999 C15.45,8.0999 14.95,8.2999 14.95,8.8999 L14.95,10.6999 L17.55,10.6999 L17.35,13.1999 L14.95,13.1999 L14.95,21.3999 L11.95,21.3999 L11.95,13.1999 L10.35,13.1999 L10.35,10.7999 Z" id="Fill-4" fill="#1F1D1D"></path>
                </g>
            </g>
        </g>
    </g>
</svg>