<svg id="Layer_1" data-name="Layer 1" xmlns="http://www.w3.org/2000/svg" xmlns:xlink="http://www.w3.org/1999/xlink" width="27" height="27" viewBox="0 0 27 27"><defs><style>.cls-1{fill:#fff;fill-rule:evenodd;}.cls-2{mask:url(#mask);}.cls-3{fill:#1f1d1d;}</style><mask id="mask" x="0" y="0" width="27" height="27" maskUnits="userSpaceOnUse"><g id="mask-2"><polygon id="path-1" class="cls-1" points="0 0 27 0 27 27 0 27 0 0"/></g></mask></defs><title>social_instagram</title><g id="Page-1"><g id="AIFC Board Portal-Homepage-2"><g id="Group-13"><g id="social_fb" data-name="social fb"><g id="Group-3"><g class="cls-2"><path id="Fill-1" class="cls-1" d="M13.5,0A13.5,13.5,0,1,1,0,13.5,13.49,13.49,0,0,1,13.5,0"/></g></g></g></g></g></g><path class="cls-3" d="M17.85,6.43H9.17A2.74,2.74,0,0,0,6.43,9.17h0v8.67a2.74,2.74,0,0,0,2.73,2.73h8.68a2.74,2.74,0,0,0,2.73-2.73V9.17A2.74,2.74,0,0,0,17.85,6.43Zm.78,1.68h.26v2.4H16.5V8.11Zm-7.18,4A2.48,2.48,0,1,1,11,13.55a2.55,2.55,0,0,1,.52-1.5Zm7.7,5.79a1.34,1.34,0,0,1-1.35,1.35H9.17a1.35,1.35,0,0,1-1.35-1.35V12.05H9.93a3.87,3.87,0,1,0,7.18,0h2.1Z"/></svg>