<svg id="Layer_1" data-name="Layer 1" xmlns="http://www.w3.org/2000/svg" width="600" height="436" viewBox="0 0 600 436"><defs><style>.cls-1{fill:#25457a;}</style></defs><title>testimonial_background</title><path class="cls-1" d="M41.63,173.69c3.5-8.87,31.44-43.66,36.66-51.82s-1.72-47.71,18-47.71c27.94,0,19.78,43.1,25,52.38S145,154,149.08,163.6a149,149,0,0,1,14.55,67.29h18c0-.87,4.72-85.39,11.71-99.33C197.6,123,216.62,102.45,227.06,92s12.83-53.54,31.44-53.54S273.71,84,277.16,90.79s11.61,17.49,16.27,31.44,7.41,69.87,17.45,69.87c11.25,0,5.07-54.71,14-69.87,10.14-17.65,37.27-40.57,41.88-47.72s2.34-44.21,24.49-44.21c13.95,0,15.52,35.49,18.61,43.05S431.61,109.9,432.72,118s2.33,59,13.24,59c8.11,0,20.94-61.31,24.44-68.25a149.46,149.46,0,0,1,20.94-26.22c15.21-13.59,8.16-37.67,26-37.67s21.7,42.34,22.87,50.45,19.77,28.34,22.51,43.86,2.33,92.33,2.33,92.33H593c0-18.71,0-81.12-2.74-97.25v.05c-2.53-14.5-11.2-27.78-18.15-38.48-1.52-2.33-3.5-5.38-4.61-7.3-2.69-20.59-10.15-71.6-50.15-71.6-30.88,0-39,27.48-41.68,36.51a39.79,39.79,0,0,1-3,8.26,194.56,194.56,0,0,0-22.62,26.52C447.83,84,445,79.28,442,73.75c-2.13-3.65-5.07-8.52-6-10.7-.36-1.47-.61-3.34-1-5.42-3.29-18.05-10.14-55.78-43.71-55.78-39.44,0-46.64,41.93-49,55.78l-.45,2.74c-1.93,2-4.62,4.71-6.75,6.89-7.6,7.66-16.37,16.58-23.93,25.81-2-3.7-4.06-6.95-5.78-9.84l-1.78-2.89c0-1.62-.3-3.5-.5-5.57-1.62-19.17-5.38-64.55-44.52-64.55-31.84,0-42.09,31.89-48.22,50.7-1.27,3.91-3.09,9.64-4.26,12.17-7.35,7.41-30.73,31.59-37.67,45.64a71.17,71.17,0,0,0-5.08,15.92c-2.48-3.15-5.07-6.29-7.7-9.53s-6-7.2-8.06-10.15c0-1.57-.31-3.54-.46-5.07-1.12-15.71-4.62-63.68-50.71-63.68C56.9,46.22,54,90,53,104.43c0,1.62-.3,3.75-.45,5.47-2.24,3-5.53,7.51-8.42,11.31-16.89,22.41-25.35,33.87-28.5,42.09C14.46,166.44,10.6,176,6.8,226.07l27.84,2.13S38.13,182.56,41.63,173.69Z"/><path class="cls-1" d="M558.47,303.8,528.3,258.93c-6.95-9.54-17.09-38-17.09-45S504.27,186,493.77,186s-22.11,8.22-22.11,15.21a172.42,172.42,0,0,0,3.45,23.28A42.8,42.8,0,0,1,465.73,237c-5.58,3.55-4.66,19.78-14,19.78-17.45,0-31.39-73.37-38.39-86.2s-24.44-22.16-24.44-22.16A89.43,89.43,0,0,0,392.36,123c0-15.21-13.28-22.16-24.64-22.16s-20.28,16.68-20.28,26A89.35,89.35,0,0,0,354,152.24s-19.88,10.55-26.78,18.66-5.42,46.55-22.1,46.55c-15.16,0-33.72-98.93-58.21-98.93S213,174.86,209.62,185.35,196.84,205.18,191,216.79s-7.61,45.38-29.1,45.38c-25.61,0-23.89-74.48-60.55-74.48-21.55,0-29.1,32.4-29.1,36.1S69.32,263,66.43,269.42,31,302.63,28,305.52s-1.77,11-1.77,14,9.94,2.89,12.83,0S75.2,288,81.59,288s3.5,31,3.5,33.21-21,30.32-21,32.61,22.71,4,22.71,6.94-.56,43.1-.56,46.6a14.67,14.67,0,0,0,12.17,10.14c5.28,0,8.77-8.77,8.77-12.83s2.84-37.82,10.45-37.82,11.66,33.82,11.66,39.6,6.44,8.72,10.5,8.72,7.55-9.48,7.55-12.83-.61-37.11-.61-40.56,19.83-15.77,19.83-18.66-20.13-25.86-25-30.83-2.33-29.66,1.17-33.16,15.11,8.11,24.44,8.11c15.72,0,29.71-46.55,51.82-46.55,3.29,0-1.78,36-1.78,40.16S196.23,335,196.23,340.26,219.56,346.09,219,349s-1.17,54.76-1.17,60,3.45,11.61,8.12,11.61,6.43-5.57,6.43-11.61,9.33-45.63,12.22-45.63S258.5,408.2,258.5,411.7s4.66,10.5,8.72,10.5a8.78,8.78,0,0,0,8.32-8.22c0-4.05.6-60.13.6-64.6s21.5-.4,21.5-5.07-22.31-45.83-22.31-53.39-3.5-52.38,2.34-52.38c12.93,0,20.07,29.67,33.21,29.67s9.28-32.61,23.27-32.61c7,0,0,53,0,63.48s-18.66,110.59-18.66,117.54A15.22,15.22,0,0,0,326,429.45a13.19,13.19,0,0,0,10.14-11.66c0-7,16.27-80.32,26.77-80.32s9.33,68.2,9.33,72.76,1.12,20.28,6.95,20.28,7.6-7.6,7.6-11.66,4.62-41.27,4.62-55.27,1.16-82.65,1.16-94.31,1.78-29.66,13.39-29.66c15.72,0,27.79,51.21,37.27,51.21s4.1-10.14,14.55-10.14c3.3,0,5.07,19.22,5.07,26.77s-6.44,33.72-6.44,41.88-.56,71-.56,75.1,3.45,11.05,6.39,11.05a10.14,10.14,0,0,0,7.56-10.14c0-23.88,9.88-57,14-57,2.74,0,12.22,48.78,12.22,55.77a11.46,11.46,0,0,0,5.83,10.5,7.93,7.93,0,0,0,1-.07,8.27,8.27,0,0,0,7.14-9.26c0-7-.56-70.48-.56-85.59s5.22-50,12.22-50,30.83,23.89,33.16,26.22a12.17,12.17,0,0,0,12.22.56C569,314.35,563.54,307.3,558.47,303.8Z"/></svg>